<svg id="Layer_1" data-name="Layer 1" xmlns="http://www.w3.org/2000/svg" viewBox="0 0 880.47 982.12"><defs><style>.cls-1{fill:#fdfdfd;}.cls-2{fill:#2a2e30;}</style></defs><title>Untitled-1</title><path class="cls-1" d="M462.72,778q0-240-.26-480.08c0-9.79,2.19-11.31,10.69-11.31q429.49.42,859,0c8.2,0,10.82,1.08,10.81,11.17q-.51,480.08,0,960.17c0,9.23-2,10.66-10.06,10.65q-430.09-.42-860.19.11c-9.89,0-10.07-3.66-10.06-12Q462.86,1017.35,462.72,778Zm323,269.8c2.62-2.6,1.45-5.78,1.45-8.76,0-38.56.18-77.12-.12-115.68-.07-9.14,1.55-13.09,11.38-12.54,41.65,2.34,83.33,4.28,125,5,12.8.23,15,5,14.77,17.68-.87,42.48-.36,85-.68,127.5-.05,6.57,1.34,11.46,5.79,16.23,32.79,35.19,65.29,70.69,98,106,2,2.19,3.48,6.13,7.42,5.13,2.15-2.38,1.33-5.15,1.34-7.66.32-82.35.77-164.7.66-247.05,0-10.15,2.61-12.65,11.69-11.91,18.14,1.49,36.39,1.31,54.55,2.6,5.47.39,9-1.19,12.82-5.07q51.41-52.1,103.08-103.89c1.91-1.92,4.73-3.65,3.1-7.66a15.11,15.11,0,0,0-3.36-.92c-55.81-2.22-111.61-4.64-167.43-6.34-10.48-.32-14.57-2.75-14.41-15.47.81-62.68.43-125.38.81-188.06.06-10.19-1.94-18.15-9.09-25.7-30.73-32.46-60.8-65.64-91.26-98.39-3-3.2-5.34-9.83-10-8-5.09,2-2.26,8.55-2.27,13q-.41,152.57-.41,305.15c0,8-1.21,11.9-9.9,11.44q-64.9-3.4-129.86-5.58C790,788.55,787.23,786,787.34,776c.52-49.08.19-98.16.33-147.25,0-3.07-2-7,3.18-10.12L919.49,760.94c0-99.18,0-195.5.09-291.81a16.51,16.51,0,0,0-4.9-12.51c-32.53-34.85-64.78-70-97.24-104.94-2.32-2.5-4.07-8-8.3-5.77-3.23,1.67-1.36,6.36-1.37,9.66-.08,27.17,0,54.34,0,81.52,0,36.56,0,73.12,0,112.13-26-28-50.21-54.31-74.65-80.29-7.43-7.9-14.18-22.33-22.81-21.53-8.18.76-14.93,14.58-23.09,21.6-9.48,8.16-11.92,18-11.84,30.81.54,89.84.4,179.69.49,269.53,0,8.35-.39,15.65-7.19,22.31-33,32.34-65.45,65.4-98,98.26-2.54,2.56-7.41,4.5-5.93,8.93,1.72,5.14,7,3.06,10.77,3.22,28.71,1.22,57.43,2.77,86.15,3.15,10.67.14,15.95,3,13.91,15.46-1.15,7,1.67,12.3,6.4,17.37,32.24,34.55,64.19,69.41,96.29,104.11C780.44,1044.46,782,1048,785.74,1047.76Z" transform="translate(-462.45 -286.57)"/><path class="cls-2" d="M785.74,1047.76c-3.76.28-5.29-3.31-7.44-5.63C746.19,1007.44,714.24,972.58,682,938c-4.73-5.07-7.55-10.34-6.4-17.37,2-12.45-3.24-15.32-13.91-15.46-28.73-.38-57.44-1.93-86.15-3.15-3.8-.16-9.06,1.92-10.77-3.22-1.48-4.42,3.39-6.36,5.93-8.93,32.59-32.85,65-65.91,98-98.26,6.8-6.66,7.2-14,7.19-22.31-.09-89.84.05-179.69-.49-269.53-.08-12.8,2.36-22.65,11.84-30.81,8.16-7,14.91-20.84,23.09-21.6,8.63-.81,15.38,13.63,22.81,21.53,24.44,26,48.62,52.25,74.65,80.29,0-39,0-75.57,0-112.13,0-27.17-.13-54.34,0-81.52,0-3.29-1.86-8,1.37-9.66,4.24-2.19,6,3.27,8.3,5.77,32.46,34.93,64.7,70.1,97.24,104.94a16.51,16.51,0,0,1,4.9,12.51c-.12,96.32-.09,192.63-.09,291.81L790.85,618.66c-5.16,3.08-3.17,7.05-3.18,10.12-.14,49.08.19,98.17-.33,147.25-.11,10,2.7,12.52,11.48,12.81q64.95,2.14,129.86,5.58c8.68.45,9.9-3.43,9.9-11.44q-.06-152.57.41-305.15c0-4.46-2.82-11,2.27-13,4.65-1.8,7,4.82,10,8,30.46,32.76,60.54,65.93,91.26,98.39,7.15,7.55,9.15,15.51,9.09,25.7-.38,62.69,0,125.38-.81,188.06-.16,12.72,3.93,15.15,14.41,15.47,55.82,1.7,111.62,4.12,167.43,6.34a15.11,15.11,0,0,1,3.36.92c1.63,4-1.19,5.74-3.1,7.66q-51.54,52-103.08,103.89c-3.83,3.88-7.35,5.46-12.82,5.07-18.16-1.3-36.41-1.12-54.55-2.6-9.08-.74-11.71,1.76-11.69,11.91.11,82.35-.34,164.7-.66,247.05,0,2.51.81,5.28-1.34,7.66-3.94,1-5.38-2.94-7.42-5.13-32.7-35.29-65.21-70.79-98-106-4.45-4.78-5.84-9.66-5.79-16.23.32-42.5-.19-85,.68-127.5.26-12.69-2-17.45-14.77-17.68-41.69-.75-83.37-2.7-125-5-9.83-.55-11.45,3.4-11.38,12.54.3,38.56.12,77.12.12,115.68C787.19,1042,788.36,1045.16,785.74,1047.76Z" transform="translate(-462.45 -286.57)"/></svg>